/* XPM */
static char *graphic[] = {
"100 100 66 1",
". c #327104",
", c #327304",
"- c #337504",
"* c #327404",
"a c #337404",
"b c #317105",
"c c #317205",
"d c #317005",
"e c #337304",
"f c #327204",
"g c #337603",
"h c #337703",
"i c #337803",
"j c #327305",
"k c #327205",
"l c #316F05",
"m c #327504",
"n c #306E05",
"o c #306F05",
"p c #317305",
"q c #317104",
"r c #337604",
"s c #316E05",
"t c #306D05",
"u c #327105",
"v c #317204",
"w c #327503",
"x c #317304",
"y c #327603",
"z c #307005",
"A c #337503",
"B c #317404",
"C c #327604",
"D c #327403",
"E c #327703",
"F c #337704",
"G c #317004",
"H c #327704",
"I c #307105",
"J c #327405",
"K c #317405",
"L c #327004",
"M c #327005",
"N c #337405",
"O c #347805",
"P c #337505",
"Q c #347905",
"R c #337605",
"S c #337705",
"T c #347A05",
"U c #357B05",
"V c #347804",
"W c #357A05",
"X c #327505",
"Y c #347904",
"Z c #337804",
"0 c #347A04",
"1 c #337903",
"2 c #347705",
"3 c #357905",
"4 c #347704",
"5 c #337805",
"6 c #347604",
"7 c #337904",
"8 c #347605",
"9 c #337305",
".,---rhgwvnodc**----a,cccJOQUUWYiiiiiiiiiiiiihC*ppa--apcddllbbf,a---aaud,a--rryyxqzobka-aakbdllldb,a",
",a-----,vGozbc**-----a*jcjPSQQYYiiiihhhiiiiihC*jpj---apccuukj,*a-----a,,a-----,vqdzdc,a-a*jbbukkkjaa",
"-----a,qnnozcp**-------*ccjPOViiiiihrrhhiiiiCmpcjj--aacc,,aa----------------aaulnndbf,a-**pc,*------",
"-----,qdozvxmmm------rrrmmm-rrhiiihFrrhhiihFmm*mm-r-*jcccf,a---------------a,kdldq,*mm-m*,ccc,*-----",
"----*qnnovyEiihhrr--rrhhiihg,*hhihrr-rhhiirr*mghiihgpcbbbb,,--------------aaudonq,AhhhCmpbbbcc,*----",
"---*,czbv*Ehihgm**aa--ggiiihA-ghhhrr--ghhhrr-ghhihm*ccckjj,,*a------------ajubbq*mhhhrm*cbkkjjj,a---",
"--a,cccByEiiig*,cc,,***miiiihhrrhhrr--gghhrrhhiihgpcbc,*--jj,,------------jkbb*mhiiiHCKccc,aaajkea--",
"--a*j**mEhihgm,,c,*****-hhiiihhrhrr----gghFhhhihgmccc,*---a**a------------ajj,mChihhm*pcjjaaaaajaa--",
"-----rhhiiig*,cc,*------rFiiiihhrr------rriiiihg*,bc,*--------------------aa-rhiiiCmpccc,a----aaa---",
"-----rhhhiihm*j**a------rrhhhhhrr--------rFhhhhhA*,,*------------------------rFhhhhC*jjjaa-----a----",
"------rrrFiihg------------rrrrrr----------rrggiiggaa------------------------rrrrhhhhr-aa------------",
"------rrrhihgr------------rrr-------------rrghhhg-aaaaa----------------------rrrhhhg-aaaa----aaaa--r",
"-------rhhihmm---------------ajjaa--------rrhhhgm*jjjjaa----------------------rrhiHC*,,,a---JjjjaarV",
"-------rhhhgmm-----aaaeeeaaaa*kj,aaa------rrghhr*jkkkkjaa---------------aaaa--rrhhrm*,,*----mJjjJ-4Y",
"*-------rrgA**aa--aeff...f,,,fbcjj,,aa------ggr-Jjbbbbjjaa--------------*,,,a-rrhhr-*,*mrrrrmmpcJROW",
"**------rrg-*aa---a,f.LL..f,,kcckk,,aa------grr-Njkbbbcj*a----rrrrrrrr--,,ff*a-rrg--a*mmrFFFrCmpXSQW",
",*----------------*,bdlldbkkkkkkbbkjaa-----------ajkbbbc,*--rr44444444r-jkbbkja-------CChiiiiiCmSQTU",
"*a----------------**kkbukkjjjjjkccjea-------------jjkcbc,*--rr4VVYYVVVr-ajcbcja-------mmChiiiihCZQWU",
"------aaaa----------ae,,------a,ckaa------aaaa-----ajjccaa--RROQWUUUTQFr-akbcc,a----**pc*ghiiiii70WW",
"-----*,,,a----------aa*a----aa,kbc,a----aa,,ea------JJjjaaaaJXR5WUUW0YFr*,cbpjaa----**pc*Agiiiii1YYY",
"aaaa*,bccjaa---------------a,,bbdb,,aaaa,,bbkj------------JjccJXQW001ihh*ccc*-------**pc,,Ahiiiiiiii",
",,,,,cbcj,a---rrrrr-------a,vbddldff,,,,fkbkjj--rrrr------NjkcjJSOYYiihh*c,*-rrr-----m****ghhiiiiiih",
"bccccccjaa--rrhhihhg-----a,vontnnodbccccbbkja---hhhhrr------,,cc*mhiiihh*,Aghihhr---ghhihhrrhhiiiihr",
"bcjjjjj*a----rhhiihh--aaaefdntttoldbcpjjkjjj----gghhFr-------***mmhiiiihAmghiigw*,,,-ghiihhrhhhihhFr",
"cjaa-------a,*CHiiihCmjjeflstttnddbb,,----------**ghihr---rrhhhhhhiiiiiihhhiii*vdodb,*giiihhrrhhhrhh",
"ckea-------a,*mChhiiHCJj,ulsnnnldbbbf,a---------**-rhh-a**mmrghhhhiiihiiihiigwxqdoddc,mhhiihhrhhrrrg",
"bkka--------aa,*mCiiihm*cbddddddbbbbbc,*--------**jJggJjcccp*ChiiiiiFrhiiiii*qbdddbbbb,*giiihhrrr---",
"bbbk,,,a----aa,*mrhhhrmpcbdddddbbbbbdbff,,aa----**J*rr*jccbb,*ChiiiihrhhiihyvGdduukkkk,*rhhhhhrr----",
"dlnldddkaa----aa--rr-mpcbbbbbbbbbbbblllldd.fa-----aarraaccdlldf*hiiihhrrhh*vzndu,aaaaaaa-rrrrrr-----",
"bdoosllb,eaaaaaa--r--*pcbbdbbbbbcccbddllslG.,*aaaaa---a,cbllllq,Chhhhhrrrg,qdlukeaaaaaaa-rrrrr------",
",cbltttldukjjJaa-----a,,kuldbbbcjj,,f.llttnobcjjjJ----,fdlnnnodc*mrrrr--m*cduueaa-**,,a-------------",
",fbdnnnlbbjjjjaa-----a,,kbllbbckjJ*,ffddooodbcjjjja-aaf.ddddddcj*mrrrr--*,kbkkaaaa,,,,*--------rrrrr",
"af.qqqqvvx*,cj**------a,bdnobcjj---a,,vvvqvvff**ccaa,fbdukjjJNPPPP------Jjjja---*,bdbb,-------rVVVVV",
"ef.f,******,cp**----aa,kdonobkjJ---*,fvx,,**,***ccaaffbbjNPRR2222Rr-----aJJJ----,fbdbb,-------6VVYYY",
"ff.*ghhhhCm*cp**--aa,,bdnnodkja---,,bc,*ghhhhg**ccaecbcpP2Q3WWWWW3Fr----------aakbdl.fa------a62QWWU",
"fffaghihhC*pcp**--a,fcblnndbjj---a,fck,*ghhhgw,vccaakkjjR23WWUUUW3Fr----------aakbbdf,a-----aaPROQWU",
".,a--ghgwxzddc**-a,fbdlllduja----aff,,a-rrgg*,dobca------rVYWWUU0Yihr-rrrrrr--*,ccf,*-------ekkpXSQW",
"fe----gw,qozdc**-a,fbddMuujj-----aff,*--rrADfqoobka-------4V3WWWYYihr-rFFrrr--a,,j,*a-------ajkcJROQ",
"a----a*qooozbc**-a,,kkeaaa----------------,flooouka--------rVVYYiiiirrhiiihhr-----------------JjjKXS",
"-----,fdnoIbc,mm-*,kkkea----------------a*fGoobbj*-----rrrrr4VVViiiiFFiiiihr-a----rrr----------JJKXR",
"----afonnqwwgghg*,bbbckj---------------a,flodbmggghg--ghhiiihhFFiiiiiiiihhmppp*aghhihhgg----rhhgggmJ",
"---aaboozxyhhhgm,jccckkja--------------afqzdb,ghhhgg--ghhiiihhrrhiiiiiiihg*pcp*-ghiihhgA----rghhhhrX",
"--a,ccbpmCiiigm,ccjja***jJ------------*,bbvxwgiihg*,pja-hhiiiihhrFiiiihhm,cb,*rhhiiiHC*pjja-a*Ahhihh",
"--a,cpp*ChiihC*jckja--**jJ------------*,kcBmhhihgm,,cja-ghhiiihhrrhiiihg*,kk*mghiiihCmpcjja-a,-hhihh",
"---aaaAgiiihm*ccjj------aa--------------a-ghiihg*pcc,*---rhhiiiihhrFiiFr-aaa-rhiiiHC*pccjaa-aa--ghii",
"----a-ghiiihm*pjja------aa----------------hhiihh*pcc**----ghhiihhhrrhhrr-aaa-rhiiihC*ppc,a---a--rhhi",
"------rrrhihgm**--------------------------rrhhihCm**------rrrrrrrr--rrr-----rrrrhhhhm**aa-------rrrr",
"------rrrhihg-*---------------------------rrhhihCm**a-----rrrrrrrr--rr------rrrrhhhhCm*a---------rrr",
"-------rhhihmm----------------JJ-----------rhhhhm*jjjJ------------------------rrhhggm**,a---ajjja-r4",
"-------rhhihmm--------aaaa---ajja-----------hhhg**jjjja-----------------------rrhhggm**,a---*jjjJ-6V",
"*------rhhhg**a---aa,,,,,,,,,,ccjj,*aa------hhrrJjcbbcjJ----------------****a-rrhhr-*,*m-rrrm*jcJRO3",
"**-----rhhhr*aa---a*,fffff,,,fbckj,,aa------ggr-Jjcbbbkja---------------**,,*--rghr-a,*mrrrr-m,cXSOW",
",*----------------*,cbzddbkkkkkkbccjaa-----------akkbbbc**--rr64444446--jkccjJ---------ghiiihhm*ROTU",
",a----------------*,cbzdbukjjkkkbbcjaa------------jkbbbc,*--rr4VVVVVV4r-jkcbkj*--------ghiiiiigmFQWU",
"------aaa----------*,,f,aaaaaaa,cc,a------aaaa----aakkcc*a--RRQQWWWWTQFraekccc**-----**Kmghiiiih70WW",
"-----aaaaa----------**,*-----aa,ckaa-----aaaaa------jkcjaa--PR5QWUUUTQFraajccc**----**pp*ghiiiii100W",
"----*,ccc,a-----------------aekcbc,*----*,kkkj------aaaa--JjjjXRQW00Yihg*ccc,aa-----**pc,*ghiiiiiiii",
"aa-**pccc,a----------------aefbdbbf,a--*,fbbkj------------JjccjJOQ00iihh*ccp*-------m*,p,*Ahhiiiiiii",
"ccppcccjaa-rghhhhhhr------*,Mlnnoldbcpppcckkaa--ghhhrr-----a,,ppXRZiiihh*f*Aghhgr--rrgggggrrhhiiiihr",
"bcccccc,a--rghiiiihg-----a,fssttnodbcccccckj----ghiiFr------*,jpJXhiiihh*,Aghihg-a--rhhhhhhrhhhiiiFr",
"cjaaaaaa----*mChiiihCmJNa,blnttnldbb,,,aaaaa----*mhhhhr---rrggggggiiiiiigghiiiwxqbbk,mhiiihhrrhhhrhh",
"cjaaaaa----a,*CCiiihCmjjafdlnttnddbb,,aaaa------,*ghih-----rghhhhhiiiiiihhiihh*vzoddf*Chiiihhrhhrrrh",
"bkja-------aa**mChiihCm*jcddllldbbbbcj,*--------***mhh*,jjjjmChiiiiiFFiiiiiiwxvddddbcp*mhiiihhrrr-rr",
"bbkjaaa-----aa,*CHihhgm*cbddddddbbbbccf,aaa-----**jJgg*,cccc*mhiiiiiFrhiiihh,qbddbbbcc,*giiihhrr---r",
"dddbuuu,a----aaa-rrrrmKpbbbbbbbbbbbbddddbuf,------aarr*,ccdddb*mhiiihhFFhhwxqoduk,,,,,*a-FFFrrr-----",
"ddooddduea---aaa--rr-*pcbbbbbbbbbbbbdlllddLfa-----aarr*,cbdlldf*hiiihhrrgg,vzodk,*****aa-rrrrr------",
"fbdlnnnlukjjJaaa----aa,jkbdbbbbbkkff..llnnldkkjJJJ----,fddonnobcmCrFrrr--*vbddkea-aa**a-------------",
",fdlnnnldbkkjjaa----aa,,kuddbbbcjj,,f.dlnnnlukjjjj---af.dloooobc*mrrrr--**bdbc,a--aa**a-------------",
"a,.qqqqqqv,jcj*a-----aa,bdolbbkkaaaa,fqqqqqqvv,,cjaa,fudbbbcckjJPP------*jjkj,a-a,,kcc*-------r66666",
"a,ffvxxxx,,,cp**-----aa,bdnobbkj---a,,vvxxxxxx,,ccaaf.ddcpjJJXPRRP------Jjjjaa--*,cbbb,-------644444",
",fq,wyyyywD,cp**---a*,kbnnozbkaa--*,bbf*yyyyyw*,ccaeubdbJR2OQQQQQOrr-----aaa--aa,bddd.,------a6OO33W",
"ffq*hhiiiywxcp**---a,fbdtnozcj---a,fbb,*hiiihg*,ccaeubbcRSQWUUUUWW4r----------aakbdl.fa-----aaR2QWWU",
"b,*-rghhE*qbbc**-a*,bdzoslbk*a---akcf,a-rFhhm*bdbcaaa,**-rVYWWUU00Zh----------ajcccf,aa-----ajjJRO3W",
"b,---rhywxoodc**-a,fddolldkj-----*cc,*--rrgg*voobca-------4V3WUU00ihr---------Jjjc,,a-------jkkcN2OW",
"*a----m,qznobc**-a,fbcf,,,aa------**a-----*,bdoobka-------rFVY00Y1ihrrFhhhhg---a**aa--------aajkjN8Q",
"-----a*qnnndb,*m-a,,cjaa-----------------afqonodkj--------rrVVY0iiiiFrhiiihh------------------akkkPO",
"----a,blndv*mmg-*,ccbcje----------------,fdlld,*-rgg--gghhhhFFZZiiiiihiiihA*,j**rghhhhhgr---rgr----P",
"---aafllobmChhhg*,bbbckj---------------af.oodfghhhhg--ghiiiiFFFFiiiiiiiihg*,cc,*ghiiiihhr---rhhhhhrJ",
"--a*jcdcxmhhihm*cckj,,,,Ja------------*,cbbb,mhihhm*,*-rhhiiiihhFFiiiiihA*,cf,*AhiiihHm*jja--*rhhihr",
"--a,ccb,CHiiig*,bcjjaa**jJ------------,,cbc,ghiihg*,cpa-hhiiiihhrrhiiihh*,cb,,AghiiiHCKckka-Jj-hhiih",
"---a,**ChiihC*ppkjaa---aaa------------aa**mChhhhm*cc,*--rFhhiiiihhFFiihraa,,a-ghiihHmppcjea-aa-rhiii",
"----a-ghiiig*,ccjJ------aa----------------hhiihgKpcc,*--rrhhiiiihhrrhiFr-aaa-rhiiiHCKccc,a--aa-rFiii",
"------rrFhihm*,,aa------------------------rhhhihm*,,*----rrrFFFFrrrrrFr-----rrrFhhhgm*,,*-------rFFF",
"------rrrFihCm**aa------------------------rrhhiiCC**------rrrrrrrr--rr------rrrrhhhhCm**--------rrrr",
"-------rrFihmm,,j**------------------------rhhhhmm**-----**J--rrF2222228Njaa--rrhhhgCmm-------------",
"--------rFihm*,,jj**------------------------hhhgm*,,----**jjaarrOOOOOO289kea--rrhhggmm--------------",
"--***--rhhhgm,ccckj,a---------------aa*aa--rhhhr*,**-rr-**jjJPSOQWWW3Q2Pkdfaa-rrhhgm**-----**,,,****",
"-*****-rhhhg*,bbbbkjaa--------------aa**aarrhhr-Jj**rrrrm*pcJXOQWUUUW38Ndn.ea-rrhhCm*,a---**,ffff,,*",
"a*ppc,a-rrr--*fcbbbkja----rrrrrrrr--*,kkje--rr--aa-ghhhhhC*JXRQWUUUWQOJullfa----rr--aa----*pbdddbccp",
"a,ccbkaa-----a,fbbbbkj---rFFFFFFFF--,,bbkkaa------ggiiiiiiCmS5WUUUWWORulldfa--------------jcdnlldbcc",
"-*,cbkja------a,kcccjj---rOOQQQQQVrra,kkbkja------**ChiiiihFZQWUUW3ORJkuk,a--a------------a,kduf,,,*",
"-**,bckj-------ajjccjJ---rQTUUUUWQFr-akkbcjj-----appmCiiiiiiYYWUWWO2Pjjj--rr-a------------aajkea----",
"g*cckjaa--------a***aaaajJRSTWUU0YZF-*kck,*a-----ajkp*ghiiiiiYYYVORRSSS2OOOSJk,,a-----------aaa----a",
"g*bckj----------------a,ccjPOTU011ihm,bc,*-------ajkcpAgiiiiiiiiFrXX5TWWUUTOJbffa-----------------aa",
"g*c,-rhggr--gghrr------a,jpjPSQY1iihm*,,mAggg---rr-mmmrghiiiiiihrrrrZTWUWTSJbdqfa--rrgghgg--------,k",
"gmpmhhiihg-rhhihrr------*,ccjXZZiiihm**mhhhhgg--hhhhhhrrhhiiiihhrrhhZ7TUTQJbonqfa-rrhhiihhr-------kd",
"hgmriihg,,v,*mHFhrr----rrmmmmrZiiiihgggghhgw,fff*AhhhhhhFhhhhhhFhhhii7YQ5Rjbbqfea--mmChiihhr-Jaa,kdn",
"iihhiihDGGozbpCHihrr--rrhhhhhhiiiiiihhhhihwDzoldf*ghiiiirrhhhhrrhiiiiiZZXJcbf,aa--****giiihhmjaakdnt",
"iiiihg*fGdddbcKmHCCm*JJ*mghiiiiihhhiiiihhC,vddddc,*mhiiihhrrrrrrFFFFFFCXjckf,aa----***mghiihr-a,kdll",
"iiiih*bbddddbbcKCCm*cccp*miiiiihgghhiiihm*bdddddbbpKghiihhrr----rrrrrrJpcbf,a-------****giiihg*,bddd"
};
